<svg
  width="506"
  height="513"
  viewBox="0 0 506 513"
  fill="none"
  xmlns="http://www.w3.org/2000/svg"
>
<path
    d="M498.5 256.5C498.5 394.116 388.489 505.5 253 505.5C117.511 505.5 7.5 394.116 7.5 256.5C7.5 118.884 117.511 7.5 253 7.5C388.489 7.5 498.5 118.884 498.5 256.5Z"
    fill="#white"
    stroke="#3C958B"
    stroke-width="15"
  />
<path
    d="M355.5 235C355.5 292.161 309.161 338.5 252 338.5C194.839 338.5 148.5 292.161 148.5 235C148.5 177.839 194.839 131.5 252 131.5C309.161 131.5 355.5 177.839 355.5 235Z"
    fill="white"
    stroke="#3C958B"
    stroke-width="15"
  />
<path
    d="M197.155 328.875C197.78 328.495 199.57 327.752 203.081 326.969C206.514 326.204 210.903 325.543 216.03 325.011C226.266 323.949 238.917 323.452 251.669 323.504C264.416 323.556 277.086 324.156 287.35 325.247C292.49 325.793 296.912 326.451 300.384 327.192C303.915 327.946 305.796 328.654 306.501 329.042C306.58 329.152 306.749 329.44 306.937 330.055C307.321 331.312 307.566 333.287 307.484 336.073C307.321 341.63 305.928 348.745 303.969 356.071C302.035 363.303 299.663 370.332 297.76 375.583C297.23 377.044 296.739 378.361 296.307 379.5H211.679C211.093 378.271 210.405 376.803 209.65 375.147C207.286 369.96 204.305 363.007 201.767 355.827C199.194 348.549 197.232 341.464 196.663 335.889C196.379 333.093 196.494 331.116 196.796 329.863C196.939 329.268 197.084 328.985 197.155 328.875ZM306.454 328.987C306.454 328.986 306.463 328.994 306.478 329.013C306.461 328.997 306.453 328.988 306.454 328.987ZM197.171 328.851C197.189 328.825 197.199 328.815 197.2 328.817C197.201 328.818 197.192 328.831 197.171 328.851Z"
    fill="white"
    stroke="#3C958B"
    stroke-width="15"
  />
<rect
    x="197.5"
    y="384.5"
    width="109"
    height="17"
    rx="8.5"
    fill="white"
    stroke="#3C958B"
    stroke-width="5"
  />
<path
    d="M231 415.5H272C276.694 415.5 280.5 419.306 280.5 424C280.5 428.694 276.694 432.5 272 432.5H231C226.306 432.5 222.5 428.694 222.5 424C222.5 419.306 226.306 415.5 231 415.5Z"
    fill="white"
    stroke="#3C958B"
    stroke-width="5"
  />
<rect
    x="205.5"
    y="402.5"
    width="93"
    height="17"
    rx="6.5"
    fill="white"
    stroke="#3C958B"
    stroke-width="5"
  />
<path
    d="M204.369 313C207.45 307.004 305.083 310.5 305.083 310.5L298.583 337.5L204.369 335.5C204.369 335.5 201.289 318.996 204.369 313Z"
    fill="white"
  />
<path
    d="M244.686 248.152C244.192 247.165 243.946 245.932 243.946 244.452C243.946 243.071 244.192 242.035 244.686 241.344C244.488 240.851 244.39 240.012 244.39 238.828C244.39 237.447 244.587 236.065 244.982 234.684C245.376 233.303 245.82 232.415 246.314 232.02C245.426 231.231 244.982 229.504 244.982 226.84C244.982 225.656 245.08 224.62 245.278 223.732C245.475 222.745 245.771 222.153 246.166 221.956C245.672 220.969 245.426 219.391 245.426 217.22C245.426 215.641 245.574 214.211 245.87 212.928C246.166 211.547 246.56 210.511 247.054 209.82C245.87 208.636 245.278 207.008 245.278 204.936C245.278 203.653 245.475 202.469 245.87 201.384C246.363 200.2 246.955 199.312 247.646 198.72C246.758 197.437 246.314 195.859 246.314 193.984C246.314 192.8 246.56 191.369 247.054 189.692C246.067 188.409 245.574 187.176 245.574 185.992C245.574 184.413 246.264 183.081 247.646 181.996C249.027 180.812 250.556 180.22 252.234 180.22C253.418 180.22 254.454 180.615 255.342 181.404C256.328 182.095 257.019 183.18 257.414 184.66C258.499 185.943 259.042 187.324 259.042 188.804C259.042 189.791 258.844 190.629 258.45 191.32C258.746 191.616 258.894 194.033 258.894 198.572C259.091 199.361 259.19 200.003 259.19 200.496C259.19 202.469 258.746 204.591 257.858 206.86C258.45 207.649 258.746 208.981 258.746 210.856C258.746 212.139 258.548 213.421 258.154 214.704C257.858 215.888 257.512 216.776 257.118 217.368C257.216 217.664 257.364 218.207 257.562 218.996C257.759 219.785 257.858 220.525 257.858 221.216C257.858 222.301 257.611 223.239 257.118 224.028C257.808 225.015 258.154 226.988 258.154 229.948C258.154 231.033 258.055 231.971 257.858 232.76C258.252 233.253 258.45 234.289 258.45 235.868C258.45 237.151 258.252 238.433 257.858 239.716C257.562 240.9 257.068 241.739 256.378 242.232C257.068 243.021 257.414 244.107 257.414 245.488C257.414 246.771 257.167 247.807 256.674 248.596C257.167 248.793 257.414 249.484 257.414 250.668C257.414 251.359 257.315 252.099 257.118 252.888C256.92 253.579 256.674 253.973 256.378 254.072C256.575 254.861 256.674 255.503 256.674 255.996C256.674 257.575 256.082 259.005 254.898 260.288C253.812 261.472 252.431 262.064 250.754 262.064C248.978 262.064 247.498 261.423 246.314 260.14C245.13 258.759 244.686 257.18 244.982 255.404C244.488 254.22 244.242 252.641 244.242 250.668C244.242 249.583 244.39 248.744 244.686 248.152ZM245.574 284.264C245.574 286.04 246.116 287.471 247.202 288.556C248.386 289.543 249.767 290.036 251.346 290.036C252.727 290.036 253.96 289.641 255.046 288.852C256.131 287.964 256.822 286.731 257.118 285.152C258.006 283.968 258.45 282.587 258.45 281.008L258.302 278.196C258.104 275.532 256.92 273.756 254.75 272.868C254.059 272.572 253.319 272.424 252.53 272.424C250.951 272.424 249.57 273.016 248.386 274.2C247.202 275.285 246.61 276.667 246.61 278.344C246.61 278.837 246.708 279.479 246.906 280.268C246.018 281.551 245.574 282.883 245.574 284.264Z"
    fill="#3C958B"
  />
<path
    d="M361.06 78L336.564 109.683"
    stroke="#3C958B"
    stroke-width="15"
    stroke-linecap="round"
    stroke-linejoin="round"
  />
<path
    d="M67.799 174.031L105.755 186.81"
    stroke="#3C958B"
    stroke-width="15"
    stroke-linecap="round"
    stroke-linejoin="round"
  />
<path
    d="M112.821 97.5103L140.579 126.38"
    stroke="#3C958B"
    stroke-width="15"
    stroke-linecap="round"
    stroke-linejoin="round"
  />
<path
    d="M183 53.938L195.349 92.0354"
    stroke="#3C958B"
    stroke-width="15"
    stroke-linecap="round"
    stroke-linejoin="round"
  />
<path
    d="M272.479 45.6496L269.145 85.5596"
    stroke="#3C958B"
    stroke-width="15"
    stroke-linecap="round"
    stroke-linejoin="round"
  />
<path
    d="M418.574 137L386.047 162.056"
    stroke="#3C958B"
    stroke-width="15"
    stroke-linecap="round"
    stroke-linejoin="round"
  />
</svg>
