<svg
  width="13"
  height="17"
  viewBox="0 0 13 17"
  fill="none"
  xmlns="http://www.w3.org/2000/svg"
>
<path
    fill-rule="evenodd"
    clip-rule="evenodd"
    d="M9.15488 5.74646L12.2196 14.0133C12.3998 14.4499 12.3465 14.9622 12.0713 15.3686C11.796 15.775 11.3372 16.0168 10.8437 16.0168H2.12186C1.62839 16.0168 1.1696 15.775 0.89414 15.3694C0.618875 14.9622 0.565595 14.4494 0.751925 13.9971L3.81083 5.74646V3.31353C3.23128 3.11333 2.81618 2.56816 2.81618 1.92877V1.53196C2.81618 0.723091 3.47978 0.065577 4.2955 0.065577H8.66992C9.48565 0.065577 10.1492 0.723091 10.1492 1.53196V1.92877C10.1492 2.56856 9.73302 3.11447 9.15488 3.31395V5.74646ZM4.6124 11.6394C4.33492 11.6394 4.10944 11.8618 4.10944 12.1391C4.10944 12.4158 4.33492 12.6388 4.6124 12.6388C4.89208 12.6388 5.11767 12.4158 5.11767 12.1391C5.11767 11.8618 4.89208 11.6394 4.6124 11.6394ZM8.23034 13.4374C8.23034 12.9625 7.84078 12.575 7.35898 12.575C6.87671 12.575 6.48805 12.9625 6.48805 13.4374C6.48805 13.9144 6.87671 14.3022 7.35898 14.3022C7.84078 14.3022 8.23034 13.9144 8.23034 13.4374ZM7.24609 10.0602C6.89878 10.0602 6.61733 10.3405 6.61733 10.6823C6.61733 11.0254 6.89878 11.3046 7.24609 11.3046C7.59151 11.3046 7.87278 11.0254 7.87278 10.6823C7.87278 10.3405 7.59151 10.0602 7.24609 10.0602ZM4.78927 2.91007V5.91872L3.64784 8.9975H3.69293C3.69293 8.9975 8.36231 8.9214 9.00131 8.26337C9.00796 8.25667 9.0141 8.25143 9.02028 8.24615C9.02495 8.24216 9.02964 8.23816 9.03459 8.23349L8.1763 5.91872V2.425H8.66549C8.94599 2.425 9.17066 2.20237 9.17066 1.92877V1.53196C9.17066 1.25794 8.94599 1.03553 8.66992 1.03553H4.2955C4.01942 1.03553 3.79463 1.25794 3.79463 1.53196V1.92877C3.79463 2.20237 4.01942 2.425 4.2955 2.425H4.78484L4.78927 2.91007ZM6.82294 7.11066C6.82294 7.4838 6.5174 7.78701 6.14248 7.78701C5.76536 7.78701 5.46026 7.4838 5.46026 7.11066C5.46026 6.73914 5.76536 6.43533 6.14248 6.43533C6.5174 6.43533 6.82294 6.73914 6.82294 7.11066Z"
    fill="white"
  />
</svg>
