<svg
  width="17"
  height="17"
  viewBox="0 0 17 17"
  fill="none"
  xmlns="http://www.w3.org/2000/svg"
>
<path
    fill-rule="evenodd"
    clip-rule="evenodd"
    d="M7.92926 6.77818L7.96694 6.77984C8.10433 6.77984 8.23691 6.7144 8.32199 6.6037C8.4163 6.48051 8.44127 6.31933 8.38894 6.17402C8.38446 6.16133 7.95578 4.91573 8.51246 3.87831C9.10338 2.89034 9.29593 2.09468 9.08444 1.51397C8.89457 0.992131 8.46637 0.853697 8.41931 0.840074C8.18479 0.770838 7.93051 0.909291 7.86135 1.1444C7.79107 1.3833 7.92673 1.63583 8.14485 1.69994C8.1474 1.70085 8.20786 1.73115 8.24251 1.82608C8.29339 1.96546 8.3476 2.39748 7.75864 3.3875L7.73702 3.42394C7.69202 3.49871 7.64348 3.57623 7.59102 3.65711C6.90953 4.71062 6.70537 5.54046 6.98426 6.122C7.20863 6.59162 7.68167 6.75515 7.92926 6.77818ZM14.2693 14.4288C13.6674 14.386 12.9784 14.3524 12.2348 14.3269C12.9133 13.7368 13.4861 12.9718 13.9071 12.0817C14.1127 12.2892 14.3682 12.4404 14.6578 12.5111C14.7845 12.5423 14.9127 12.5576 15.0399 12.5576C15.3311 12.5576 15.6174 12.4771 15.8723 12.3205C16.2387 12.0953 16.4964 11.7399 16.5975 11.3196C16.6988 10.8989 16.6316 10.4642 16.4083 10.095C16.0342 9.47563 15.3123 9.20672 14.649 9.37322C14.6778 9.08467 14.6974 8.7925 14.6974 8.49401C14.6974 8.18262 14.4474 7.9304 14.1385 7.9304H3.79267C3.48404 7.9304 3.23375 8.18262 3.23375 8.49401C3.23375 10.9073 4.20864 13.0398 5.69315 14.3275C4.95088 14.3529 4.26304 14.3864 3.66199 14.4288C1.56958 14.5763 0.961218 14.7168 0.961218 15.3628C0.961218 16.0084 1.56958 16.1491 3.66199 16.2967C5.08061 16.3969 6.96423 16.4521 8.96565 16.4521C10.9669 16.4521 12.8505 16.3969 14.2693 16.2967C16.3617 16.1491 16.9699 16.0084 16.9699 15.3628C16.9699 14.7168 16.3617 14.5763 14.2693 14.4288ZM14.5373 10.1366C14.5394 10.1352 14.5416 10.1346 14.5439 10.1341C14.5461 10.1335 14.5483 10.1329 14.5503 10.1316C14.9905 9.86127 15.5672 10.0026 15.8356 10.4467C15.9657 10.6616 16.0046 10.915 15.9456 11.16C15.8868 11.405 15.737 11.6116 15.5233 11.7426C15.3101 11.8743 15.0585 11.9133 14.8162 11.8541C14.5734 11.7946 14.3679 11.6435 14.2382 11.428C14.2313 11.4165 14.2221 11.4078 14.2128 11.3991C14.2079 11.3945 14.2029 11.3898 14.1983 11.3847C14.3415 10.9862 14.4543 10.5687 14.5373 10.1366ZM4.37196 9.05754H13.5594C13.3398 12.0961 11.3633 14.4818 8.96565 14.4818C6.56799 14.4818 4.59168 12.0961 4.37196 9.05754ZM10.3462 6.86286L10.3149 6.86195C10.0818 6.83921 9.7653 6.69863 9.61106 6.37555C9.4131 5.96359 9.53789 5.42128 9.99302 4.71788C10.0205 4.67498 10.0466 4.6334 10.0709 4.59326L10.0967 4.55015C10.4476 3.96124 10.3862 3.74732 10.3781 3.72511C10.3796 3.72583 10.3982 3.73402 10.4241 3.74149C10.3167 3.70913 10.2279 3.63623 10.1746 3.5368C10.1208 3.43675 10.1091 3.32195 10.1414 3.21331C10.2046 2.99612 10.4467 2.86259 10.6645 2.92648C10.7262 2.94512 11.0321 3.0549 11.1693 3.43101C11.3174 3.83806 11.1983 4.35477 10.8058 5.01035C10.5007 5.57963 10.7398 6.28517 10.7427 6.2939L10.7427 6.29393C10.792 6.43115 10.7683 6.5825 10.6791 6.69833C10.5993 6.80174 10.475 6.86286 10.3462 6.86286Z"
    fill="white"
  />
</svg>
