<svg
  width="17"
  height="16"
  viewBox="0 0 17 16"
  fill="none"
  xmlns="http://www.w3.org/2000/svg"
>
<path
    fill-rule="evenodd"
    clip-rule="evenodd"
    d="M16.2787 0.69884C16.3341 0.670058 16.402 0.676934 16.4523 0.715328C16.5013 0.754244 16.5234 0.818036 16.5086 0.879164L13.5981 12.7609C13.5875 12.8039 13.5594 12.8399 13.521 12.8623C13.4966 12.8757 13.4687 12.8834 13.4409 12.8834C13.4252 12.8834 13.4095 12.8807 13.3942 12.8764L7.57217 11.1203C7.5203 11.1047 7.47998 11.0642 7.46427 11.0129C7.44922 10.961 7.46106 10.9052 7.49598 10.8645L13.2913 4.07263L5.74629 10.4585C5.70432 10.497 5.64413 10.5093 5.58967 10.492L0.629136 8.93011C0.566987 8.90995 0.522831 8.85475 0.517074 8.79045C0.511944 8.72542 0.545897 8.66429 0.604816 8.63459L16.2787 0.69884ZM7.667 12.3653L9.27577 12.8554C9.32382 12.8702 9.36222 12.9062 9.37983 12.953C9.39746 12.9993 9.39199 13.0518 9.36479 13.0936L7.756 15.6105C7.72524 15.6576 7.67369 15.6851 7.61958 15.6851C7.60421 15.6851 7.58916 15.6827 7.57474 15.6788C7.50525 15.6587 7.45787 15.5964 7.45787 15.5251V12.5183C7.45787 12.4673 7.48188 12.4195 7.52351 12.3893C7.5648 12.359 7.61829 12.3495 7.667 12.3653Z"
    fill="white"
  />
</svg>
