<svg
  width="17"
  height="17"
  viewBox="0 0 17 17"
  fill="none"
  xmlns="http://www.w3.org/2000/svg"
>
<path
    fill-rule="evenodd"
    clip-rule="evenodd"
    d="M15.6167 4.14858H9.93634L12.177 1.46618C12.2129 1.47264 12.2437 1.48626 12.2809 1.48626C12.6497 1.48626 12.948 1.18878 12.948 0.820542C12.948 0.454469 12.6497 0.154934 12.2809 0.154934C11.9139 0.154934 11.6137 0.454469 11.6137 0.820542C11.6137 0.901045 11.6339 0.975183 11.6596 1.04613L9.0678 4.14858H8.82359L6.23298 1.04613C6.25813 0.975183 6.27767 0.901045 6.27767 0.820542C6.27767 0.454469 5.97933 0.154934 5.6105 0.154934C5.24292 0.154934 4.94331 0.454469 4.94331 0.820542C4.94331 1.18878 5.24292 1.48626 5.6105 1.48626C5.64762 1.48626 5.67974 1.47264 5.71433 1.46618L7.95565 4.14858H2.2753C1.53891 4.14858 0.941629 4.74516 0.941629 5.47917V14.7977C0.941629 15.5327 1.53891 16.1285 2.2753 16.1285H15.6167C16.3531 16.1285 16.9504 15.5327 16.9504 14.7977V5.47917C16.9504 4.74516 16.3531 4.14858 15.6167 4.14858ZM12.948 13.4664C12.948 14.2014 12.3514 14.7977 11.6137 14.7977H3.60967C2.87323 14.7977 2.2753 14.2014 2.2753 13.4664V6.81079C2.2753 6.07535 2.87323 5.47917 3.60967 5.47917H11.6137C12.3514 5.47917 12.948 6.07535 12.948 6.81079V13.4664ZM14.9136 7.51787C14.3875 7.51787 13.9608 7.09157 13.9608 6.56707C13.9608 6.04206 14.3875 5.61679 14.9136 5.61679C15.4392 5.61679 15.8659 6.04206 15.8659 6.56707C15.8659 7.09157 15.4392 7.51787 14.9136 7.51787Z"
    fill="white"
  />
</svg>
